Patient4_TMGait_0pt3_03_left_03_GRF.mot
version=1
nRows=39
nColumns=19
inDegrees=no
endheader
time	F1x	F1y	F1z	M1x	M1y	M1z	F2x	F2y	F2z	M2x	M2y	M2z	EC1x	EC1y	EC1z	EC2x	EC2y	EC2z
4.57	5.4754	0.14234	1.0145	0.0799	-0.14381	-1.9997	-19.1765	876.7281	-40.9179	314.4487	50.1895	898.0026	-0.0592	0.0182	-0.0073	-0.0462	0.0165	0.9585
4.5883	3.5747	0.21674	0.69103	-0.019301	-0.14787	-1.2104	-18.6512	880.5912	-40.7891	315.7948	49.9954	898.9999	-0.0592	0.0182	-0.0073	-0.0462	0.0165	0.9585
4.6066	1.9666	0.28749	0.4307	-0.11016	-0.15582	-0.52887	-17.6829	883.0467	-40.4273	316.6104	49.3238	898.0411	-0.0592	0.0182	-0.0073	-0.0462	0.0165	0.9585
4.6249	0.74794	0.36006	0.24156	-0.18616	-0.1669	0.012933	-16.2413	883.0409	-39.7789	316.4989	48.0947	894.1952	-0.0592	0.0182	-0.0073	-0.0462	0.0165	0.9585
4.6431	-0.084863	0.43638	0.11711	-0.24597	-0.18007	0.41773	-14.3922	879.7693	-38.8466	315.1401	46.3312	886.8046	-0.0592	0.0182	-0.0073	-0.0462	0.0165	0.9585
4.6614	-0.59407	0.51199	0.046021	-0.28842	-0.19474	0.7005	-12.2799	872.7631	-37.699	312.3263	44.1548	875.5604	-0.0592	0.0182	-0.0073	-0.0462	0.0165	0.9585
4.6797	-0.86305	0.57368	0.01647	-0.31118	-0.21309	0.86599	-10.0798	861.8977	-36.4625	307.9725	41.756	860.4835	-0.0592	0.0182	-0.0073	-0.0462	0.0165	0.9585
4.698	-0.96931	0.59399	0.01838	-0.30843	-0.23752	0.90997	-7.9407	847.3624	-35.2976	302.1172	39.3479	841.871	-0.0592	0.0182	-0.0073	-0.0462	0.0165	0.9585
4.7163	-0.97727	0.53609	0.04337	-0.27079	-0.27131	0.82265	-5.9467	829.5985	-34.357	294.9108	37.1221	820.2169	-0.0592	0.0182	-0.0073	-0.0462	0.0165	0.9585
4.7346	-0.93651	0.3561	0.080813	-0.18464	-0.31325	0.58362	-4.1035	809.2072	-33.7475	286.5901	35.2104	796.1316	-0.0592	0.0182	-0.0073	-0.0462	0.0165	0.9585
4.7529	-0.88155	0.010739	0.11717	-0.033946	-0.35548	0.16212	-2.3461	786.9215	-33.5076	277.4699	33.6601	770.3146	-0.0592	0.0182	-0.0073	-0.0462	0.0165	0.9585
4.7711	-0.83274	-0.53633	0.13991	0.1944	-0.38751	-0.47282	-0.56534	763.6593	-33.6012	267.9568	32.4369	743.6093	-0.0592	0.0182	-0.0073	-0.0462	0.0165	0.9585
4.7894	-0.79425	-1.302	0.13932	0.50491	-0.39574	-1.3362	1.3653	740.5813	-33.9179	258.5567	31.4293	717.0712	-0.0592	0.0182	-0.0073	-0.0462	0.0165	0.9585
4.8077	-0.75355	-2.2651	0.10372	0.88689	-0.36086	-2.4041	3.5511	719.0874	-34.3171	249.8584	30.4966	691.9774	-0.0592	0.0182	-0.0073	-0.0462	0.0165	0.9585
4.826	-0.68626	-3.3325	0.018257	1.3027	-0.25763	-3.5751	6.0588	700.7164	-34.6874	242.485	29.5252	669.7439	-0.0592	0.0182	-0.0073	-0.0462	0.0165	0.9585
4.8443	-0.56313	-4.3055	-0.13615	1.6745	-0.054128	-4.6369	8.928	686.9497	-34.9748	237.0101	28.4529	651.7413	-0.0592	0.0182	-0.0073	-0.0462	0.0165	0.9585
4.8626	-0.3503	-4.8411	-0.38148	1.8697	0.28496	-5.2278	12.1939	678.965	-35.1843	233.8642	27.2592	639.0603	-0.0592	0.0182	-0.0073	-0.0462	0.0165	0.9585
4.8809	-0.014204	-4.4141	-0.73411	1.6872	0.78893	-4.7939	15.8785	677.383	-35.3581	233.2432	25.9504	632.2779	-0.0592	0.0182	-0.0073	-0.0462	0.0165	0.9585
4.8991	0.46592	-2.3035	-1.1976	0.85282	1.471	-2.5745	19.9594	682.0563	-35.5734	235.0403	24.5729	631.2775	-0.0592	0.0182	-0.0073	-0.0462	0.0165	0.9585
4.9174	1.0853	2.3841	-1.7516	-0.97235	2.3078	2.3707	24.3141	691.9514	-35.9337	238.8168	23.2332	635.1572	-0.0592	0.0182	-0.0073	-0.0462	0.0165	0.9585
4.9357	1.7998	10.6273	-2.3356	-4.1583	3.2157	11.0798	28.6752	705.104	-36.5472	243.8028	22.1019	642.2027	-0.0592	0.0182	-0.0073	-0.0462	0.0165	0.9585
4.954	2.5014	23.3214	-2.8309	-9.0383	4.0226	24.5133	32.6588	718.7595	-37.4746	248.9607	21.3569	650.0178	-0.0592	0.0182	-0.0073	-0.0462	0.0165	0.9585
4.9723	2.9868	40.9809	-3.0365	-15.7959	4.4311	43.2323	35.8427	729.7141	-38.6749	253.1152	21.1104	655.8189	-0.0592	0.0182	-0.0073	-0.0462	0.0165	0.9585
4.9906	2.9228	63.3821	-2.6838	-24.3299	4.0185	67.0156	37.858	734.8601	-39.9914	255.1527	21.3631	656.9106	-0.0592	0.0182	-0.0073	-0.0462	0.0165	0.9585
5.0089	2.0704	89.3012	-1.486	-34.1558	2.3755	94.5826	38.4879	731.861	-41.1839	254.2605	21.9958	651.2599	-0.0592	0.0182	-0.0073	-0.0462	0.0165	0.9585
5.0271	0.57309	116.6609	0.77243	-44.4711	-0.67678	123.7037	37.7344	719.681	-42.0036	250.1035	22.8102	637.9439	-0.0592	0.0182	-0.0073	-0.0462	0.0165	0.9585
5.0454	-1.1958	143.547	3.8773	-54.5645	-4.7563	152.276	35.8323	698.7827	-42.284	242.8783	23.5957	617.3235	-0.0592	0.0182	-0.0073	-0.0462	0.0165	0.9585
5.0637	-2.9938	169.4778	7.3374	-64.2791	-9.2284	179.7432	33.2058	670.9328	-41.9648	233.2302	24.1615	590.8842	-0.0592	0.0182	-0.0073	-0.0462	0.0165	0.9585
5.082	-4.7082	195.0089	10.7474	-73.8504	-13.61	206.6861	30.3575	638.6338	-41.0628	222.0498	24.3461	560.7513	-0.0592	0.0182	-0.0073	-0.0462	0.0165	0.9585
5.1003	-6.2768	220.6613	13.7916	-83.4955	-17.539	233.658	27.7092	604.3811	-39.6315	210.2161	24.0399	529.0542	-0.0592	0.0182	-0.0073	-0.0462	0.0165	0.9585
5.1186	-7.6734	246.4301	16.2902	-93.2167	-20.8122	260.6685	25.4973	570.092	-37.7777	198.3979	23.2383	497.4379	-0.0592	0.0182	-0.0073	-0.0462	0.0165	0.9585
5.1369	-8.8974	271.8955	18.2266	-102.8406	-23.4086	287.2926	23.7694	536.9496	-35.67	186.9987	22.0537	466.9282	-0.0592	0.0182	-0.0073	-0.0462	0.0165	0.9585
5.1551	-9.9381	296.5098	19.7165	-112.1327	-25.444	312.9558	22.4376	505.5318	-33.4888	176.2064	20.6623	438.0403	-0.0592	0.0182	-0.0073	-0.0462	0.0165	0.9585
5.1734	-10.7791	319.8436	20.9434	-120.901	-27.1013	337.1999	21.3532	475.9778	-31.3686	166.0571	19.2287	410.912	-0.0592	0.0182	-0.0073	-0.0462	0.0165	0.9585
5.1917	-11.4303	341.8275	22.0755	-129.096	-28.5552	359.9305	20.3881	448.1219	-29.3738	156.4853	17.8563	385.4124	-0.0592	0.0182	-0.0073	-0.0462	0.0165	0.9585
5.21	-11.8898	362.8343	23.2071	-136.8441	-29.9003	381.4938	19.4831	421.5767	-27.508	147.3544	16.5744	361.2157	-0.0592	0.0182	-0.0073	-0.0462	0.0165	0.9585
5.2283	-12.1245	383.4805	24.3713	-144.3723	-31.1612	402.4746	18.6451	395.8461	-25.7291	138.4937	15.3524	337.9047	-0.0592	0.0182	-0.0073	-0.0462	0.0165	0.9585
5.2466	-12.1012	404.2976	25.589	-151.8837	-32.3518	423.3685	17.9151	370.4469	-23.9739	129.7369	14.1328	315.0738	-0.0592	0.0182	-0.0073	-0.0462	0.0165	0.9585
5.2649	-11.799	425.5358	26.8968	-159.4817	-33.5058	444.3924	17.3264	345.0071	-22.1843	120.9555	12.8628	292.4099	-0.0592	0.0182	-0.0073	-0.0462	0.0165	0.9585
